<svg width="56" height="22" viewBox="0 0 56 22" fill="none" xmlns="http://www.w3.org/2000/svg">
<path d="M10.784 19H9.232L8.992 17H1.792L1.552 19H0V15.048H1.184C1.25867 14.9307 1.38133 14.6693 1.552 14.264C1.72267 13.8587 1.89333 13.288 2.064 12.552C2.23467 11.8053 2.37867 10.8773 2.496 9.768C2.61333 8.648 2.66667 7.32533 2.656 5.8H9.36V15.048H10.784V19ZM7.168 15.048V7.752H4.688C4.624 9.65067 4.46933 11.208 4.224 12.424C3.98933 13.6293 3.74933 14.504 3.504 15.048H7.168ZM17.5425 14.52H14.1025L13.2545 17H11.0625L15.0945 5.72H16.7105L20.7425 17H18.4385L17.5425 14.52ZM14.6625 12.76H17.0625L16.2305 10.264L15.8945 8.504H15.8145L15.4785 10.28L14.6625 12.76ZM28.412 7.752H25.148V17H22.956V7.752H19.676V5.8H28.412V7.752ZM33.8238 14.52H30.3838L29.5358 17H27.3438L31.3758 5.72H32.9918L37.0238 17H34.7198L33.8238 14.52ZM30.9438 12.76H33.3438L32.5118 10.264L32.1758 8.504H32.0958L31.7598 10.28L30.9438 12.76Z" fill="#242424"/>
<path fill-rule="evenodd" clip-rule="evenodd" d="M48 17C51.3137 17 54 14.3137 54 11C54 7.68629 51.3137 5 48 5C44.6863 5 42 7.68629 42 11C42 14.3137 44.6863 17 48 17ZM49.2727 8.27273C49.2727 8.97564 48.7029 9.54545 48 9.54545C47.2971 9.54545 46.7273 8.97564 46.7273 8.27273C46.7273 7.56982 47.2971 7 48 7C48.7029 7 49.2727 7.56982 49.2727 8.27273ZM49.2727 10.5V14H46.7273V10.5H49.2727Z" fill="#242424"/>
</svg>
